<svg xmlns="http://www.w3.org/2000/svg" viewBox="0 0 342 203"
  font-family="-apple-system,BlinkMacSystemFont,Segoe UI,Helvetica,Arial,sans-serif">
<rect width="342" height="203" fill="white" rx="6"/>
  <text x="38" y="14" fill="#24292f" font-size="11" font-weight="bold">每日笔记修改篇数</text>
  <text x="45" y="29" fill="#586069" font-size="10" text-anchor="middle">Mar</text>
  <text x="62" y="29" fill="#586069" font-size="10" text-anchor="middle">Apr</text>
  <text x="130" y="29" fill="#586069" font-size="10" text-anchor="middle">May</text>
  <text x="215" y="29" fill="#586069" font-size="10" text-anchor="middle">Jun</text>
  <text x="283" y="29" fill="#586069" font-size="10" text-anchor="middle">Jul</text>
  <text x="10" y="59" fill="#586069" font-size="9">Sun</text>
  <text x="10" y="76" fill="#586069" font-size="9">Mon</text>
  <text x="10" y="110" fill="#586069" font-size="9">Wed</text>
  <text x="10" y="144" fill="#586069" font-size="9">Fri</text>
  <g transform="translate(38,49)">
    <rect width="14" height="14" rx="3" fill="#e0e4e8"/>
    <title>03/22 Sun：0</title>
  </g>
  <g transform="translate(38,66)">
    <rect width="14" height="14" rx="3" fill="#e0e4e8"/>
    <title>03/23 Mon：0</title>
  </g>
  <g transform="translate(38,83)">
    <rect width="14" height="14" rx="3" fill="#e0e4e8"/>
    <title>03/24 Tue：0</title>
  </g>
  <g transform="translate(38,100)">
    <rect width="14" height="14" rx="3" fill="#e0e4e8"/>
    <title>03/25 Wed：0</title>
  </g>
  <g transform="translate(38,117)">
    <rect width="14" height="14" rx="3" fill="#e0e4e8"/>
    <title>03/26 Thu：0</title>
  </g>
  <g transform="translate(38,134)">
    <rect width="14" height="14" rx="3" fill="#e0e4e8"/>
    <title>03/27 Fri：0</title>
  </g>
  <g transform="translate(38,151)">
    <rect width="14" height="14" rx="3" fill="#e0e4e8"/>
    <title>03/28 Sat：0</title>
  </g>
  <g transform="translate(55,49)">
    <rect width="14" height="14" rx="3" fill="#e0e4e8"/>
    <title>03/29 Sun：0</title>
  </g>
  <g transform="translate(55,66)">
    <rect width="14" height="14" rx="3" fill="#e0e4e8"/>
    <title>03/30 Mon：0</title>
  </g>
  <g transform="translate(55,83)">
    <rect width="14" height="14" rx="3" fill="#e0e4e8"/>
    <title>03/31 Tue：0</title>
  </g>
  <g transform="translate(55,100)">
    <rect width="14" height="14" rx="3" fill="#e0e4e8"/>
    <title>04/01 Wed：0</title>
  </g>
  <g transform="translate(55,117)">
    <rect width="14" height="14" rx="3" fill="#e0e4e8"/>
    <title>04/02 Thu：0</title>
  </g>
  <g transform="translate(55,134)">
    <rect width="14" height="14" rx="3" fill="#e0e4e8"/>
    <title>04/03 Fri：0</title>
  </g>
  <g transform="translate(55,151)">
    <rect width="14" height="14" rx="3" fill="#e0e4e8"/>
    <title>04/04 Sat：0</title>
  </g>
  <g transform="translate(72,49)">
    <rect width="14" height="14" rx="3" fill="#e0e4e8"/>
    <title>04/05 Sun：0</title>
  </g>
  <g transform="translate(72,66)">
    <rect width="14" height="14" rx="3" fill="#e0e4e8"/>
    <title>04/06 Mon：0</title>
  </g>
  <g transform="translate(72,83)">
    <rect width="14" height="14" rx="3" fill="#e0e4e8"/>
    <title>04/07 Tue：0</title>
  </g>
  <g transform="translate(72,100)">
    <rect width="14" height="14" rx="3" fill="#e0e4e8"/>
    <title>04/08 Wed：0</title>
  </g>
  <g transform="translate(72,117)">
    <rect width="14" height="14" rx="3" fill="#e0e4e8"/>
    <title>04/09 Thu：0</title>
  </g>
  <g transform="translate(72,134)">
    <rect width="14" height="14" rx="3" fill="#e0e4e8"/>
    <title>04/10 Fri：0</title>
  </g>
  <g transform="translate(72,151)">
    <rect width="14" height="14" rx="3" fill="#e0e4e8"/>
    <title>04/11 Sat：0</title>
  </g>
  <g transform="translate(89,49)">
    <rect width="14" height="14" rx="3" fill="#e0e4e8"/>
    <title>04/12 Sun：0</title>
  </g>
  <g transform="translate(89,66)">
    <rect width="14" height="14" rx="3" fill="#e0e4e8"/>
    <title>04/13 Mon：0</title>
  </g>
  <g transform="translate(89,83)">
    <rect width="14" height="14" rx="3" fill="#e0e4e8"/>
    <title>04/14 Tue：0</title>
  </g>
  <g transform="translate(89,100)">
    <rect width="14" height="14" rx="3" fill="#e0e4e8"/>
    <title>04/15 Wed：0</title>
  </g>
  <g transform="translate(89,117)">
    <rect width="14" height="14" rx="3" fill="#e0e4e8"/>
    <title>04/16 Thu：0</title>
  </g>
  <g transform="translate(89,134)">
    <rect width="14" height="14" rx="3" fill="#e0e4e8"/>
    <title>04/17 Fri：0</title>
  </g>
  <g transform="translate(89,151)">
    <rect width="14" height="14" rx="3" fill="#e0e4e8"/>
    <title>04/18 Sat：0</title>
  </g>
  <g transform="translate(106,49)">
    <rect width="14" height="14" rx="3" fill="#e0e4e8"/>
    <title>04/19 Sun：0</title>
  </g>
  <g transform="translate(106,66)">
    <rect width="14" height="14" rx="3" fill="#e0e4e8"/>
    <title>04/20 Mon：0</title>
  </g>
  <g transform="translate(106,83)">
    <rect width="14" height="14" rx="3" fill="#e0e4e8"/>
    <title>04/21 Tue：0</title>
  </g>
  <g transform="translate(106,100)">
    <rect width="14" height="14" rx="3" fill="#e0e4e8"/>
    <title>04/22 Wed：0</title>
  </g>
  <g transform="translate(106,117)">
    <rect width="14" height="14" rx="3" fill="#e0e4e8"/>
    <title>04/23 Thu：0</title>
  </g>
  <g transform="translate(106,134)">
    <rect width="14" height="14" rx="3" fill="#e0e4e8"/>
    <title>04/24 Fri：0</title>
  </g>
  <g transform="translate(106,151)">
    <rect width="14" height="14" rx="3" fill="#e0e4e8"/>
    <title>04/25 Sat：0</title>
  </g>
  <g transform="translate(123,49)">
    <rect width="14" height="14" rx="3" fill="#e0e4e8"/>
    <title>04/26 Sun：0</title>
  </g>
  <g transform="translate(123,66)">
    <rect width="14" height="14" rx="3" fill="#e0e4e8"/>
    <title>04/27 Mon：0</title>
  </g>
  <g transform="translate(123,83)">
    <rect width="14" height="14" rx="3" fill="#e0e4e8"/>
    <title>04/28 Tue：0</title>
  </g>
  <g transform="translate(123,100)">
    <rect width="14" height="14" rx="3" fill="#e0e4e8"/>
    <title>04/29 Wed：0</title>
  </g>
  <g transform="translate(123,117)">
    <rect width="14" height="14" rx="3" fill="#e0e4e8"/>
    <title>04/30 Thu：0</title>
  </g>
  <g transform="translate(123,134)">
    <rect width="14" height="14" rx="3" fill="#e0e4e8"/>
    <title>05/01 Fri：0</title>
  </g>
  <g transform="translate(123,151)">
    <rect width="14" height="14" rx="3" fill="#c6dbef"/>
    <title>05/02 Sat：2</title>
  </g>
  <g transform="translate(140,49)">
    <rect width="14" height="14" rx="3" fill="#e0e4e8"/>
    <title>05/03 Sun：0</title>
  </g>
  <g transform="translate(140,66)">
    <rect width="14" height="14" rx="3" fill="#c6dbef"/>
    <title>05/04 Mon：1</title>
  </g>
  <g transform="translate(140,83)">
    <rect width="14" height="14" rx="3" fill="#6baed6"/>
    <title>05/05 Tue：6</title>
  </g>
  <g transform="translate(140,100)">
    <rect width="14" height="14" rx="3" fill="#e0e4e8"/>
    <title>05/06 Wed：0</title>
  </g>
  <g transform="translate(140,117)">
    <rect width="14" height="14" rx="3" fill="#c6dbef"/>
    <title>05/07 Thu：2</title>
  </g>
  <g transform="translate(140,134)">
    <rect width="14" height="14" rx="3" fill="#e0e4e8"/>
    <title>05/08 Fri：0</title>
  </g>
  <g transform="translate(140,151)">
    <rect width="14" height="14" rx="3" fill="#9ecae7"/>
    <title>05/09 Sat：4</title>
  </g>
  <g transform="translate(157,49)">
    <rect width="14" height="14" rx="3" fill="#c6dbef"/>
    <title>05/10 Sun：1</title>
  </g>
  <g transform="translate(157,66)">
    <rect width="14" height="14" rx="3" fill="#c6dbef"/>
    <title>05/11 Mon：1</title>
  </g>
  <g transform="translate(157,83)">
    <rect width="14" height="14" rx="3" fill="#9ecae7"/>
    <title>05/12 Tue：3</title>
  </g>
  <g transform="translate(157,100)">
    <rect width="14" height="14" rx="3" fill="#e0e4e8"/>
    <title>05/13 Wed：0</title>
  </g>
  <g transform="translate(157,117)">
    <rect width="14" height="14" rx="3" fill="#e0e4e8"/>
    <title>05/14 Thu：0</title>
  </g>
  <g transform="translate(157,134)">
    <rect width="14" height="14" rx="3" fill="#e0e4e8"/>
    <title>05/15 Fri：0</title>
  </g>
  <g transform="translate(157,151)">
    <rect width="14" height="14" rx="3" fill="#e0e4e8"/>
    <title>05/16 Sat：0</title>
  </g>
  <g transform="translate(174,49)">
    <rect width="14" height="14" rx="3" fill="#e0e4e8"/>
    <title>05/17 Sun：0</title>
  </g>
  <g transform="translate(174,66)">
    <rect width="14" height="14" rx="3" fill="#e0e4e8"/>
    <title>05/18 Mon：0</title>
  </g>
  <g transform="translate(174,83)">
    <rect width="14" height="14" rx="3" fill="#c6dbef"/>
    <title>05/19 Tue：1</title>
  </g>
  <g transform="translate(174,100)">
    <rect width="14" height="14" rx="3" fill="#e0e4e8"/>
    <title>05/20 Wed：0</title>
  </g>
  <g transform="translate(174,117)">
    <rect width="14" height="14" rx="3" fill="#e0e4e8"/>
    <title>05/21 Thu：0</title>
  </g>
  <g transform="translate(174,134)">
    <rect width="14" height="14" rx="3" fill="#e0e4e8"/>
    <title>05/22 Fri：0</title>
  </g>
  <g transform="translate(174,151)">
    <rect width="14" height="14" rx="3" fill="#e0e4e8"/>
    <title>05/23 Sat：0</title>
  </g>
  <g transform="translate(191,49)">
    <rect width="14" height="14" rx="3" fill="#e0e4e8"/>
    <title>05/24 Sun：0</title>
  </g>
  <g transform="translate(191,66)">
    <rect width="14" height="14" rx="3" fill="#e0e4e8"/>
    <title>05/25 Mon：0</title>
  </g>
  <g transform="translate(191,83)">
    <rect width="14" height="14" rx="3" fill="#c6dbef"/>
    <title>05/26 Tue：1</title>
  </g>
  <g transform="translate(191,100)">
    <rect width="14" height="14" rx="3" fill="#e0e4e8"/>
    <title>05/27 Wed：0</title>
  </g>
  <g transform="translate(191,117)">
    <rect width="14" height="14" rx="3" fill="#9ecae7"/>
    <title>05/28 Thu：3</title>
  </g>
  <g transform="translate(191,134)">
    <rect width="14" height="14" rx="3" fill="#c6dbef"/>
    <title>05/29 Fri：2</title>
  </g>
  <g transform="translate(191,151)">
    <rect width="14" height="14" rx="3" fill="#c6dbef"/>
    <title>05/30 Sat：1</title>
  </g>
  <g transform="translate(208,49)">
    <rect width="14" height="14" rx="3" fill="#c6dbef"/>
    <title>05/31 Sun：2</title>
  </g>
  <g transform="translate(208,66)">
    <rect width="14" height="14" rx="3" fill="#e0e4e8"/>
    <title>06/01 Mon：0</title>
  </g>
  <g transform="translate(208,83)">
    <rect width="14" height="14" rx="3" fill="#c6dbef"/>
    <title>06/02 Tue：1</title>
  </g>
  <g transform="translate(208,100)">
    <rect width="14" height="14" rx="3" fill="#c6dbef"/>
    <title>06/03 Wed：2</title>
  </g>
  <g transform="translate(208,117)">
    <rect width="14" height="14" rx="3" fill="#6baed6"/>
    <title>06/04 Thu：6</title>
  </g>
  <g transform="translate(208,134)">
    <rect width="14" height="14" rx="3" fill="#e0e4e8"/>
    <title>06/05 Fri：0</title>
  </g>
  <g transform="translate(208,151)">
    <rect width="14" height="14" rx="3" fill="#9ecae7"/>
    <title>06/06 Sat：4</title>
  </g>
  <g transform="translate(225,49)">
    <rect width="14" height="14" rx="3" fill="#9ecae7"/>
    <title>06/07 Sun：4</title>
  </g>
  <g transform="translate(225,66)">
    <rect width="14" height="14" rx="3" fill="#e0e4e8"/>
    <title>06/08 Mon：0</title>
  </g>
  <g transform="translate(225,83)">
    <rect width="14" height="14" rx="3" fill="#e0e4e8"/>
    <title>06/09 Tue：0</title>
  </g>
  <g transform="translate(225,100)">
    <rect width="14" height="14" rx="3" fill="#e0e4e8"/>
    <title>06/10 Wed：0</title>
  </g>
  <g transform="translate(225,117)">
    <rect width="14" height="14" rx="3" fill="#e0e4e8"/>
    <title>06/11 Thu：0</title>
  </g>
  <g transform="translate(225,134)">
    <rect width="14" height="14" rx="3" fill="#9ecae7"/>
    <title>06/12 Fri：3</title>
  </g>
  <g transform="translate(225,151)">
    <rect width="14" height="14" rx="3" fill="#e0e4e8"/>
    <title>06/13 Sat：0</title>
  </g>
  <g transform="translate(242,49)">
    <rect width="14" height="14" rx="3" fill="#9ecae7"/>
    <title>06/14 Sun：3</title>
  </g>
  <g transform="translate(242,66)">
    <rect width="14" height="14" rx="3" fill="#e0e4e8"/>
    <title>06/15 Mon：0</title>
  </g>
  <g transform="translate(242,83)">
    <rect width="14" height="14" rx="3" fill="#e0e4e8"/>
    <title>06/16 Tue：0</title>
  </g>
  <g transform="translate(242,100)">
    <rect width="14" height="14" rx="3" fill="#c6dbef"/>
    <title>06/17 Wed：1</title>
  </g>
  <g transform="translate(242,117)">
    <rect width="14" height="14" rx="3" fill="#9ecae7"/>
    <title>06/18 Thu：3</title>
  </g>
  <g transform="translate(242,134)">
    <rect width="14" height="14" rx="3" fill="#e0e4e8"/>
    <title>06/19 Fri：0</title>
  </g>
  <g transform="translate(242,151)">
    <rect width="14" height="14" rx="3" fill="#6baed6"/>
    <title>06/20 Sat：6</title>
  </g>
  <g transform="translate(259,49)">
    <rect width="14" height="14" rx="3" fill="#e0e4e8"/>
    <title>06/21 Sun：0</title>
  </g>
  <g transform="translate(259,66)">
    <rect width="14" height="14" rx="3" fill="#e0e4e8"/>
    <title>06/22 Mon：0</title>
  </g>
  <g transform="translate(259,83)">
    <rect width="14" height="14" rx="3" fill="#e0e4e8"/>
    <title>06/23 Tue：0</title>
  </g>
  <g transform="translate(259,100)">
    <rect width="14" height="14" rx="3" fill="#e0e4e8"/>
    <title>06/24 Wed：0</title>
  </g>
  <g transform="translate(259,117)">
    <rect width="14" height="14" rx="3" fill="#e0e4e8"/>
    <title>06/25 Thu：0</title>
  </g>
  <g transform="translate(259,134)">
    <rect width="14" height="14" rx="3" fill="#e0e4e8"/>
    <title>06/26 Fri：0</title>
  </g>
  <g transform="translate(259,151)">
    <rect width="14" height="14" rx="3" fill="#e0e4e8"/>
    <title>06/27 Sat：0</title>
  </g>
  <g transform="translate(276,49)">
    <rect width="14" height="14" rx="3" fill="#9ecae7"/>
    <title>06/28 Sun：3</title>
  </g>
  <g transform="translate(276,66)">
    <rect width="14" height="14" rx="3" fill="#e0e4e8"/>
    <title>06/29 Mon：0</title>
  </g>
  <g transform="translate(276,83)">
    <rect width="14" height="14" rx="3" fill="#e0e4e8"/>
    <title>06/30 Tue：0</title>
  </g>
  <g transform="translate(276,100)">
    <rect width="14" height="14" rx="3" fill="#e0e4e8"/>
    <title>07/01 Wed：0</title>
  </g>
  <g transform="translate(276,117)">
    <rect width="14" height="14" rx="3" fill="#e0e4e8"/>
    <title>07/02 Thu：0</title>
  </g>
  <g transform="translate(276,134)">
    <rect width="14" height="14" rx="3" fill="#e0e4e8"/>
    <title>07/03 Fri：0</title>
  </g>
  <g transform="translate(276,151)">
    <rect width="14" height="14" rx="3" fill="#c6dbef"/>
    <title>07/04 Sat：1</title>
  </g>
  <g transform="translate(293,49)">
    <rect width="14" height="14" rx="3" fill="#e0e4e8"/>
    <title>07/05 Sun：0</title>
  </g>
  <g transform="translate(293,66)">
    <rect width="14" height="14" rx="3" fill="#e0e4e8"/>
    <title>07/06 Mon：0</title>
  </g>
  <g transform="translate(293,83)">
    <rect width="14" height="14" rx="3" fill="#e0e4e8"/>
    <title>07/07 Tue：0</title>
  </g>
  <g transform="translate(293,100)">
    <rect width="14" height="14" rx="3" fill="#e0e4e8"/>
    <title>07/08 Wed：0</title>
  </g>
  <g transform="translate(293,117)">
    <rect width="14" height="14" rx="3" fill="#e0e4e8"/>
    <title>07/09 Thu：0</title>
  </g>
  <g transform="translate(293,134)">
    <rect width="14" height="14" rx="3" fill="#e0e4e8"/>
    <title>07/10 Fri：0</title>
  </g>
  <g transform="translate(293,151)">
    <rect width="14" height="14" rx="3" fill="#e0e4e8"/>
    <title>07/11 Sat：0</title>
  </g>
  <g transform="translate(310,49)">
    <rect width="14" height="14" rx="3" fill="#e0e4e8"/>
    <title>07/12 Sun：0</title>
  </g>
  <g transform="translate(310,66)">
    <rect width="14" height="14" rx="3" fill="#e0e4e8"/>
    <title>07/13 Mon：0</title>
  </g>
  <g transform="translate(310,83)">
    <rect width="14" height="14" rx="3" fill="#e0e4e8"/>
    <title>07/14 Tue：0</title>
  </g>
  <g transform="translate(310,100)">
    <rect width="14" height="14" rx="3" fill="#e0e4e8"/>
    <title>07/15 Wed：0</title>
  </g>
  <g transform="translate(310,117)">
    <rect width="14" height="14" rx="3" fill="#e0e4e8"/>
    <title>07/16 Thu：0</title>
  </g>
  <g transform="translate(310,134)">
    <rect width="14" height="14" rx="3" fill="#e0e4e8"/>
    <title>07/17 Fri：0</title>
  </g>
  <g transform="translate(310,151)">
    <rect width="14" height="14" rx="3" fill="#e0e4e8"/>
    <title>07/18 Sat：0</title>
  </g>
  <rect x="38" y="173" width="10" height="10" rx="2" fill="#e0e4e8"/>
  <text x="52" y="183" fill="#586069" font-size="9">0</text>
  <rect x="68" y="173" width="10" height="10" rx="2" fill="#c6dbef"/>
  <text x="82" y="183" fill="#586069" font-size="9">1-2</text>
  <rect x="98" y="173" width="10" height="10" rx="2" fill="#9ecae7"/>
  <text x="112" y="183" fill="#586069" font-size="9">3-4</text>
  <rect x="128" y="173" width="10" height="10" rx="2" fill="#6baed6"/>
  <text x="142" y="183" fill="#586069" font-size="9">5-6</text>
  <rect x="158" y="173" width="10" height="10" rx="2" fill="#3182bd"/>
  <text x="172" y="183" fill="#586069" font-size="9">7+</text>
</svg>
